<?xml version="1.0" standalone="no"?>
<!DOCTYPE svg PUBLIC "-//W3C//DTD SVG 20010904//EN"
 "http://www.w3.org/TR/2001/REC-SVG-20010904/DTD/svg10.dtd">
<svg version="1.0" xmlns="http://www.w3.org/2000/svg"
 width="128.000000pt" height="128.000000pt" viewBox="0 0 128.000000 128.000000"
 preserveAspectRatio="xMidYMid meet">

<g transform="translate(0.000000,128.000000) scale(0.100000,-0.100000)"
fill="#000000" stroke="none">
<path d="M285 1106 c-52 -23 -85 -66 -142 -188 -45 -95 -62 -122 -90 -138 -18
-11 -38 -31 -43 -45 -13 -34 -13 -316 0 -350 5 -14 23 -33 39 -43 29 -16 29
-18 33 -114 4 -124 16 -140 111 -146 57 -4 67 -1 93 21 28 24 29 29 32 121 l4
96 318 0 318 0 4 -95 c4 -118 17 -137 105 -143 113 -8 143 28 143 168 0 49 4
80 10 80 6 0 22 11 35 25 25 24 25 27 25 198 0 160 -2 176 -20 200 -11 14 -30
29 -41 32 -15 5 -39 45 -80 129 -61 128 -93 170 -146 192 -46 20 -664 19 -708
0z m703 -82 c18 -12 122 -199 122 -219 0 -3 -211 -5 -470 -5 -259 0 -470 2
-470 5 0 20 104 207 122 219 19 14 68 16 348 16 280 0 329 -2 348 -16z m-684
-320 c10 -10 16 -33 16 -64 0 -71 -13 -80 -120 -80 -107 0 -120 9 -120 80 0
71 13 80 120 80 67 0 92 -4 104 -16z m880 0 c10 -10 16 -33 16 -64 0 -71 -13
-80 -120 -80 -107 0 -120 9 -120 80 0 71 13 80 120 80 67 0 92 -4 104 -16z
m-384 -264 l0 -40 -160 0 -160 0 0 40 0 40 160 0 160 0 0 -40z"/>
</g>
</svg>
